<svg width="28" height="28" viewBox="0 0 28 28" fill="none" xmlns="http://www.w3.org/2000/svg">
<path fill-rule="evenodd" clip-rule="evenodd" d="M10.4133 19.1216H16.6972C17.1708 19.1216 17.5635 18.725 17.5635 18.2466C17.5635 17.7683 17.1708 17.3833 16.6972 17.3833H10.4133C9.93975 17.3833 9.54701 17.7683 9.54701 18.2466C9.54701 18.725 9.93975 19.1216 10.4133 19.1216ZM14.3176 11.55H10.4133C9.93975 11.55 9.54701 11.9466 9.54701 12.425C9.54701 12.9033 9.93975 13.2883 10.4133 13.2883H14.3176C14.7912 13.2883 15.184 12.9033 15.184 12.425C15.184 11.9466 14.7912 11.55 14.3176 11.55ZM22.5611 10.5299C22.8326 10.5267 23.1282 10.5233 23.3968 10.5233C23.6856 10.5233 23.9166 10.7566 23.9166 11.0483V20.4283C23.9166 23.3216 21.5949 25.6666 18.7302 25.6666H9.53546C6.53216 25.6666 4.08331 23.205 4.08331 20.1716V7.59498C4.08331 4.70165 6.41665 2.33331 9.29288 2.33331H15.4612C15.7615 2.33331 15.9926 2.57831 15.9926 2.86998V6.62665C15.9926 8.76165 17.7368 10.5116 19.8506 10.5233C20.3444 10.5233 20.7797 10.527 21.1606 10.5302C21.457 10.5327 21.7205 10.535 21.953 10.535C22.1174 10.535 22.3305 10.5325 22.5611 10.5299ZM22.8796 8.82698C21.9301 8.83048 20.8108 8.82698 20.0057 8.81881C18.7281 8.81881 17.6758 7.75598 17.6758 6.46565V3.39031C17.6758 2.88748 18.2799 2.63781 18.6253 3.00065C19.2512 3.65796 20.1116 4.56179 20.9678 5.46119C21.8197 6.35609 22.6674 7.24659 23.2758 7.88548C23.6131 8.23898 23.3659 8.82581 22.8796 8.82698Z" fill="white"/>
</svg>
