<svg width="28" height="28" viewBox="0 0 28 28" fill="none" xmlns="http://www.w3.org/2000/svg">
<path fill-rule="evenodd" clip-rule="evenodd" d="M18.8513 9.60501C18.8513 12.3463 16.6659 14.5444 13.9405 14.5444C11.215 14.5444 9.02966 12.3463 9.02966 9.60501C9.02966 6.86267 11.215 4.66669 13.9405 4.66669C16.6659 4.66669 18.8513 6.86267 18.8513 9.60501ZM13.9405 23.3334C9.93745 23.3334 6.5194 22.6987 6.5194 20.1602C6.5194 17.6207 9.91551 16.9629 13.9405 16.9629C17.9435 16.9629 21.3616 17.5975 21.3616 20.1371C21.3616 22.6756 17.9655 23.3334 13.9405 23.3334ZM20.9499 9.69411C20.9499 11.0916 20.5331 12.3934 19.8018 13.4756C19.7266 13.587 19.7935 13.7372 19.9262 13.7604C20.109 13.7919 20.298 13.8097 20.4903 13.815C22.4072 13.8654 24.1277 12.6245 24.603 10.7564C25.3071 7.98146 23.2397 5.49023 20.6073 5.49023C20.321 5.49023 20.0473 5.5207 19.781 5.57534C19.7444 5.58374 19.7057 5.60056 19.6848 5.63313C19.6598 5.67305 19.6786 5.72664 19.7036 5.76131C20.4944 6.87611 20.9499 8.23573 20.9499 9.69411ZM24.1246 15.7647C25.4126 16.0179 26.2598 16.5349 26.6108 17.2861C26.9075 17.9029 26.9075 18.6184 26.6108 19.2341C26.0738 20.3994 24.3429 20.7734 23.6701 20.8701C23.5312 20.8911 23.4194 20.7703 23.434 20.6305C23.7777 17.4017 21.0439 15.8708 20.3367 15.5188C20.3064 15.5031 20.3001 15.4789 20.3033 15.4642C20.3054 15.4537 20.3179 15.4369 20.3409 15.4337C21.8713 15.4053 23.5166 15.6155 24.1246 15.7647ZM7.50992 13.8149C7.70213 13.8096 7.89017 13.7928 8.07402 13.7602C8.20669 13.7371 8.27355 13.5869 8.19833 13.4755C7.46709 12.3933 7.05028 11.0915 7.05028 9.69401C7.05028 8.23563 7.50574 6.87601 8.29653 5.76121C8.3216 5.72654 8.33936 5.67295 8.31533 5.63302C8.29444 5.6015 8.25475 5.58364 8.21923 5.57523C7.9518 5.5206 7.67811 5.49013 7.39188 5.49013C4.75939 5.49013 2.69206 7.98136 3.39719 10.7563C3.8725 12.6244 5.59301 13.8653 7.50992 13.8149ZM7.69639 15.4636C7.69952 15.4793 7.69325 15.5024 7.664 15.5192C6.95574 15.8712 4.22193 17.4021 4.56561 20.6299C4.58024 20.7707 4.46951 20.8905 4.33057 20.8705C3.65782 20.7738 1.92686 20.3998 1.38992 19.2345C1.0922 18.6178 1.0922 17.9033 1.38992 17.2865C1.74091 16.5353 2.58707 16.0183 3.87511 15.7641C4.48413 15.6159 6.12839 15.4058 7.65983 15.4341C7.68281 15.4373 7.6943 15.4541 7.69639 15.4636Z" fill="white"/>
</svg>
