<svg width="519" height="92" viewBox="0 0 519 92" fill="none" xmlns="http://www.w3.org/2000/svg">
<path d="M517.594 11.6409C510.657 31.6538 501.734 44.6212 487.019 58.2846C470.775 73.3687 446.403 75.479 425.423 78.8167C369.675 87.6858 303.079 75.8429 255.251 46.6794C232.984 33.1018 210.841 15.8207 185.286 8.85116C162.493 2.63492 129.052 -0.907458 105.835 4.49924C84.3054 9.51305 62.8287 19.1421 45.5779 32.6194C26.8015 47.2884 15.8512 67.077 5.40625 87.9669" stroke="#020100" stroke-width="2" stroke-linecap="round" stroke-dasharray="8 8"/>
<path d="M1.93359 81.3765C2.71104 84.3382 3.75458 87.2326 4.49641 90.1999C4.77376 91.3093 5.63827 90.7764 6.61989 90.6026C9.84449 90.0316 13.502 88.9551 16.7613 88.9551" stroke="#020100" stroke-width="2" stroke-linecap="round"/>
</svg>
