<svg width="160" height="35" viewBox="0 0 160 35" fill="none" xmlns="http://www.w3.org/2000/svg">
<path d="M6.31773 5.19058V16.9057H13.6149C15.6229 16.9057 17.1738 16.3964 18.2675 15.3777C19.3776 14.359 19.9327 12.9198 19.9327 11.0603C19.9327 9.23307 19.3531 7.80203 18.1941 6.76716C17.0513 5.71609 15.476 5.19058 13.468 5.19058H6.31773ZM6.31773 21.878V35H0V0H14.3495C18.0553 0 20.9937 0.986371 23.165 2.95911C25.3363 4.91568 26.4217 7.57566 26.4217 10.939C26.4217 13.2675 25.8342 15.3292 24.6586 17.1241C23.4833 18.9027 21.8508 20.1641 19.7612 20.9078L27.4747 35H20.2511L13.3211 21.878H6.31773ZM49.4349 29.5911V35H26.5637V0H49.4349V5.40887H32.8816V14.6985H48.5288V19.7921H32.8816V29.5911H49.4349ZM70.1218 10.2114L62.9716 35H57.021L47.5445 0H54.1316L60.1801 26.0499H60.5474L67.5018 0H73.1093L80.1616 26.0499H80.5044L86.5527 0H93.0909L83.6143 35H77.6884L70.4891 10.2114H70.1218ZM98.3998 35H92.0821V0H98.3998V35ZM105.692 35H99.5947V0H105.08L122.417 23.7943H122.833V0H128.906V35H123.445L106.108 11.1816H105.692V35ZM130.125 0H143.373C148.63 0 152.711 1.51999 155.617 4.55995C158.539 7.58375 160 11.8445 160 17.3423C160 22.9534 158.547 27.3031 155.641 30.3916C152.752 33.4639 148.662 35 143.373 35H130.125V0ZM136.443 5.40887V29.5911H142.541C146.067 29.5911 148.785 28.5402 150.695 26.4379C152.605 24.3359 153.56 21.3364 153.56 17.4394C153.56 13.6232 152.588 10.6641 150.646 8.56203C148.719 6.45992 146.018 5.40887 142.541 5.40887H136.443Z" fill="white"/>
</svg>
