<svg width="442" height="89" viewBox="0 0 442 89" fill="none" xmlns="http://www.w3.org/2000/svg">
<path d="M425 81.9542C429.688 81.9542 434.827 81.3527 439.439 82.3903C439.757 82.4619 440.469 82.8541 440.812 82.7779C441.296 82.6703 440.171 80.2276 440.117 80.0807C438.713 76.2672 436.628 72.132 436.628 68" stroke="#020100" stroke-width="2" stroke-linecap="round"/>
<path d="M1.28125 9.19287C23.9689 41.26 74.3062 64.4731 121.295 61.6877C153.188 59.7971 184.869 46.4916 210.071 31.5124C233.642 17.503 259.142 12.7587 288.508 11.1137C315.155 9.62098 339.105 11.5105 363.233 20.9822C395.962 33.8304 416.974 56.953 437.721 79.8072" stroke="#020100" stroke-width="2" stroke-linecap="round" stroke-dasharray="8 8"/>
</svg>
