<svg width="28" height="28" viewBox="0 0 28 28" fill="none" xmlns="http://www.w3.org/2000/svg">
<path fill-rule="evenodd" clip-rule="evenodd" d="M14 25.6668C7.56004 25.6668 2.33337 20.4518 2.33337 14.0001C2.33337 7.5601 7.56004 2.33344 14 2.33344C20.4517 2.33344 25.6667 7.5601 25.6667 14.0001C25.6667 20.4518 20.4517 25.6668 14 25.6668ZM17.7217 18.3284C17.8617 18.4101 18.0134 18.4568 18.1767 18.4568C18.4684 18.4568 18.76 18.3051 18.9234 18.0251C19.1684 17.6168 19.04 17.0801 18.62 16.8234L14.4667 14.3501V8.9601C14.4667 8.4701 14.07 8.0851 13.5917 8.0851C13.1134 8.0851 12.7167 8.4701 12.7167 8.9601V14.8518C12.7167 15.1551 12.88 15.4351 13.1484 15.5984L17.7217 18.3284Z" fill="white"/>
</svg>
