<svg width="28" height="28" viewBox="0 0 28 28" fill="none" xmlns="http://www.w3.org/2000/svg">
<path fill-rule="evenodd" clip-rule="evenodd" d="M5.29652 2.33331H9.23986C10.8849 2.33331 12.2032 3.67498 12.2032 5.32115V9.29831C12.2032 10.955 10.8849 12.285 9.23986 12.285H5.29652C3.66319 12.285 2.33319 10.955 2.33319 9.29831V5.32115C2.33319 3.67498 3.66319 2.33331 5.29652 2.33331ZM5.29652 15.7146H9.23986C10.8849 15.7146 12.2032 17.0458 12.2032 18.7025V22.6796C12.2032 24.3246 10.8849 25.6663 9.23986 25.6663H5.29652C3.66319 25.6663 2.33319 24.3246 2.33319 22.6796V18.7025C2.33319 17.0458 3.66319 15.7146 5.29652 15.7146ZM22.7033 2.33331H18.76C17.115 2.33331 15.7966 3.67498 15.7966 5.32115V9.29831C15.7966 10.955 17.115 12.285 18.76 12.285H22.7033C24.3366 12.285 25.6666 10.955 25.6666 9.29831V5.32115C25.6666 3.67498 24.3366 2.33331 22.7033 2.33331ZM18.76 15.7146H22.7033C24.3366 15.7146 25.6666 17.0458 25.6666 18.7025V22.6796C25.6666 24.3246 24.3366 25.6663 22.7033 25.6663H18.76C17.115 25.6663 15.7966 24.3246 15.7966 22.6796V18.7025C15.7966 17.0458 17.115 15.7146 18.76 15.7146Z" fill="white"/>
</svg>
